<svg width="770" height="770" viewBox="0 0 770 770" fill="none" xmlns="http://www.w3.org/2000/svg">
<g clip-path="url(#clip0_1243_3555)">
<path d="M141.222 348.878C133.99 348.878 129.835 346.24 128.877 341.044V340.867H116.178V341.109C117.86 352.031 127.178 358.289 141.508 358.289C158.226 358.289 169.444 347.511 169.444 331.457V330.652C169.444 314.566 158.175 303.418 142.029 303.418C135.361 303.188 128.855 305.423 123.865 309.66C118.634 314.357 115.977 321.21 115.977 330.041V333.741H156.073C155.585 343.489 150.321 348.846 141.222 348.846M128.994 325.263C129.65 316.898 134.04 312.668 142.063 312.668C149.396 312.668 154.526 317.381 155.838 325.263H128.994Z" fill="#F50082"/>
<path d="M171.559 359.042C164.89 358.811 158.385 361.046 153.394 365.283C148.163 369.98 145.506 376.833 145.506 385.665V389.365H185.569C185.081 399.113 179.817 404.47 170.718 404.47C163.485 404.47 159.331 401.831 158.372 396.636V396.459H145.674V396.7C147.474 407.639 156.707 413.961 171.037 413.961C187.755 413.961 198.974 403.183 198.974 387.128V386.324C198.974 370.238 187.705 359.09 171.559 359.09M158.507 380.871C159.163 372.506 163.553 368.275 171.559 368.275C178.892 368.275 184.021 372.989 185.333 380.871H158.507Z" fill="#F50082"/>
<path d="M142.073 415.38C135.405 415.15 128.899 417.385 123.909 421.622C118.678 426.319 116.021 433.172 116.021 442.003V445.703H156.083C155.596 455.452 150.331 460.808 141.232 460.808C134 460.808 129.846 458.17 128.887 452.974V452.797H116.189V453.039C117.871 463.961 127.188 470.219 141.518 470.219C158.236 470.219 169.455 459.441 169.455 443.387V442.582C169.455 426.496 158.186 415.348 142.04 415.348M129.005 437.194C129.661 428.829 134.05 424.582 142.073 424.582C149.406 424.582 154.536 429.295 155.848 437.194H129.005Z" fill="#F50082"/>
<path d="M85.0368 358.29C99.3666 358.29 108.583 352.016 110.366 341.11V340.868H97.7351V341.045C96.7764 346.241 92.6894 348.879 85.39 348.879C76.2909 348.879 71.0265 343.523 70.5388 333.774H110.585V330.074C110.585 321.243 107.927 314.39 102.697 309.693C97.706 305.456 91.2008 303.221 84.5322 303.451C68.3859 303.451 57.1172 314.712 57.1172 330.686V331.49C57.1172 347.576 68.3523 358.322 85.0704 358.322M70.7742 325.281C72.0525 317.366 77.1823 312.621 84.5154 312.621C92.538 312.621 96.9278 316.867 97.5837 325.216L70.7742 325.281Z" fill="#00005A"/>
<path d="M140.081 385.687C140.081 376.855 137.424 370.002 132.193 365.305C127.202 361.068 120.697 358.833 114.028 359.064C97.882 359.064 86.6133 370.324 86.6133 386.298V387.102C86.6133 403.189 97.8484 413.934 114.566 413.934C128.896 413.934 138.113 407.661 139.896 396.754V396.513H127.231V396.69C126.273 401.886 122.185 404.524 114.886 404.524C105.787 404.524 100.523 399.167 100.035 389.419H140.081V385.687ZM100.237 380.861C101.549 372.962 106.678 368.265 114.011 368.265C122.034 368.265 126.424 372.512 127.063 380.861H100.237Z" fill="#00005A"/>
<path d="M84.5097 415.381C68.3635 415.381 57.0947 426.642 57.0947 442.616V443.42C57.0947 459.506 68.3298 470.252 85.0479 470.252C99.3777 470.252 108.595 463.978 110.377 453.072V452.831H97.7295V453.007C96.7708 458.203 92.6838 460.842 85.3843 460.842C76.2852 460.842 71.0209 455.485 70.5331 445.736H110.579V442.037C110.579 433.205 107.922 426.352 102.691 421.655C97.7004 417.418 91.1952 415.183 84.5265 415.414M70.7349 437.195C72.0468 429.296 77.1766 424.583 84.5097 424.583C92.5324 424.583 96.9221 428.83 97.5781 437.195H70.7349Z" fill="#00005A"/>
<path d="M80.8584 396.722V396.481H68.2273V396.658C67.2686 401.853 63.1816 404.492 55.8821 404.492C46.7831 404.492 41.5187 399.135 41.031 389.386H81.077V385.687C81.077 376.855 78.4196 370.002 73.1889 365.305C68.1982 361.068 61.693 358.833 55.0244 359.064C38.8781 359.064 27.6094 370.324 27.6094 386.298V387.102C27.5926 403.124 38.8277 413.967 55.5458 413.967C69.8756 413.967 79.0924 407.693 80.8752 396.786M39.9041 380.877C41.216 372.978 46.3458 368.281 53.6789 368.281C61.7015 368.281 66.0913 372.528 66.7472 380.877H39.9041Z" fill="#00005A"/>
<path d="M326.753 350.242C318.344 342.73 306.839 338.756 293.384 338.756C263.749 338.756 243.045 359.299 243.045 388.721V390.185C243.045 419.639 263.648 439.425 294.343 439.425C320.665 439.425 337.618 427.891 340.864 407.799L340.999 406.947H317.133L317.015 407.558C315.333 416.824 307.865 421.537 294.898 421.537C278.684 421.537 269.249 412.03 268.257 394.769H341.234V387.643C341.234 371.444 336.357 358.864 326.736 350.242M268.761 378.57C271.25 364.43 280.181 356.355 293.401 356.355C307.63 356.355 315.501 363.835 316.779 378.57H268.761Z" fill="#00005A"/>
<path d="M394.742 378.328C379.285 375.834 374.811 373.26 374.811 366.842C374.811 360.423 380.58 356.273 389.864 356.273C399.956 356.273 405.001 359.909 406.835 368.451L406.969 369.046H429.81L429.709 368.225C427.455 348.68 414.05 338.755 389.864 338.755C380.58 338.566 371.458 341.103 363.728 346.026C359.962 348.465 356.893 351.763 354.796 355.622C352.699 359.482 351.641 363.78 351.719 368.129C351.719 385.936 361.322 393.722 388.401 397.857C404.06 400.382 409.105 403.406 409.105 410.259C409.105 418.093 403.656 421.729 391.967 421.729C379.823 421.729 374.122 417.353 372.911 407.074V406.414H349.6V407.187C350.558 427.681 366.065 439.359 392.118 439.359C418.171 439.359 432.736 427.986 432.736 408.168C432.736 387.851 418.793 381.818 394.708 378.263" fill="#00005A"/>
<path d="M486.316 378.328C470.86 375.834 466.386 373.26 466.386 366.842C466.386 360.423 472.155 356.273 481.439 356.273C491.53 356.273 496.576 359.909 498.409 368.451L498.544 369.046H521.384L521.283 368.225C519.029 348.68 505.625 338.755 481.439 338.755C472.154 338.566 463.032 341.103 455.302 346.026C451.537 348.465 448.467 351.763 446.37 355.622C444.273 359.482 443.216 363.78 443.293 368.129C443.293 385.936 452.897 393.722 479.976 397.857C495.634 400.382 500.68 403.406 500.68 410.259C500.68 418.093 495.23 421.729 483.541 421.729C471.398 421.729 465.696 417.353 464.485 407.074V406.414H441.157V407.187C442.116 427.681 457.623 439.359 483.676 439.359C509.728 439.359 524.294 427.986 524.294 408.168C524.294 387.851 510.351 381.818 486.266 378.263" fill="#00005A"/>
<path d="M549.66 299.754C547.775 299.711 545.9 300.029 544.145 300.688C542.39 301.348 540.791 302.336 539.44 303.594C538.09 304.853 537.016 306.357 536.281 308.018C535.547 309.679 535.166 311.463 535.162 313.266C535.412 316.777 537.047 320.065 539.735 322.467C542.423 324.869 545.965 326.204 549.643 326.204C553.322 326.204 556.863 324.869 559.551 322.467C562.24 320.065 563.874 316.777 564.124 313.266C564.12 311.466 563.741 309.684 563.008 308.025C562.276 306.366 561.205 304.864 559.858 303.606C558.511 302.348 556.916 301.359 555.165 300.698C553.414 300.036 551.542 299.715 549.66 299.754Z" fill="#00005A"/>
<path d="M538.423 340.766H537.633V341.506V436.866V437.606H538.423H561.482H562.256V436.866V341.506V340.766H561.482H538.423Z" fill="#00005A"/>
<path d="M622.061 419.728C614.98 419.728 611.397 415.868 611.397 408.259V358.857H633.262V340.776H611.397V319.864H586.791V340.776H573.941V358.857H586.791V410.334C586.791 429.042 597.757 439.289 617.688 439.289C623.094 439.396 628.476 438.579 633.582 436.876L634.086 436.699V417.541L633.01 417.959C629.525 419.257 625.798 419.859 622.061 419.728Z" fill="#00005A"/>
<path d="M741.236 340.776H718.749H718.211L718.026 341.259L694.328 400.94L668.578 341.243L668.376 340.776H667.855H642.879H641.685L642.172 341.822L681.495 427.225L663.516 469.226L663.078 470.256H664.222H686.911H687.432L687.634 469.789L741.96 341.806L742.397 340.776H741.236Z" fill="#00005A"/>
</g>
<defs>
<clipPath id="clip0_1243_3555">
<rect width="717.75" height="170.5" fill="white" transform="translate(26.125 299.75)"/>
</clipPath>
</defs>
</svg>
