<?xml version="1.0" encoding="utf-8"?>
<!-- Generator: Adobe Illustrator 24.0.1, SVG Export Plug-In . SVG Version: 6.00 Build 0)  -->
<svg version="1.1" id="Layer_1" xmlns="http://www.w3.org/2000/svg" xmlns:xlink="http://www.w3.org/1999/xlink" x="0px" y="0px"
	 viewBox="0 0 191 81.16" style="enable-background:new 0 0 191 81.16;" xml:space="preserve">
<style type="text/css">
	.st0{fill:#33B2E9;}
	.st1{fill:#76B82A;}
	.st2{fill:#252F7F;}
</style>
<g>
	<g id="Eye_1_">
		<path class="st0" d="M95.45,0C78.37,0,62.77,3.85,49.32,9.2c0,0-0.03,0.01-0.04,0.02c-0.17,0.1-0.22,0.29-0.13,0.42
			c0.06,0.08,0.19,0.14,0.28,0.12c0.05-0.01,0.16-0.04,0.22-0.06c12.21-4.64,27.22-7.52,41.6-7.63
			c31.06-0.23,65.57,14.5,92.92,44.64c4.07-3.37,6.42-5.69,6.77-6.04c0.03-0.03,0.05-0.05,0.05-0.05S150.85,0,95.45,0z"/>
		<path class="st1" d="M141.78,71.55c-0.03-0.05-0.16-0.15-0.34-0.11c0,0-0.07,0.02-0.1,0.03c-12.21,4.64-27.22,7.52-41.6,7.63
			c-31.06,0.23-65.57-14.5-92.92-44.64c-4.07,3.37-6.42,5.69-6.77,6.04C0.02,40.52,0,40.54,0,40.54s40.15,40.63,95.55,40.63
			c17.08,0,32.61-3.82,46.06-9.17c0,0,0.03-0.02,0.04-0.02C141.82,71.87,141.87,71.68,141.78,71.55z"/>
	</g>
	<path class="st2" d="M145.4,27.62c-1.43,0-2.64,1.12-2.64,2.62c0,1.52,1.21,2.64,2.64,2.64c1.43,0,2.64-1.11,2.64-2.64
		C148.04,28.74,146.83,27.62,145.4,27.62z M145.4,32.35c-1.15,0-2.05-0.9-2.05-2.12c0-1.2,0.9-2.1,2.05-2.1
		c1.15,0,2.04,0.9,2.04,2.1C147.44,31.46,146.55,32.35,145.4,32.35z"/>
	<path class="st2" d="M146.55,29.79c0-0.53-0.42-0.9-0.95-0.9h-1.13v2.7h0.54v-0.88h0.41l0.5,0.88h0.6l-0.54-0.95
		C146.32,30.49,146.55,30.17,146.55,29.79z M145.52,30.24h-0.51v-0.9h0.51c0.31,0,0.45,0.19,0.45,0.45
		C145.97,30.07,145.8,30.24,145.52,30.24z"/>
	<path class="st2" d="M86.67,27.77H68.56v25.54h18.12c1.18,0,2.14-0.96,2.14-2.13v-0.89H74.46v-8.66h9.83
		c1.18,0,2.14-0.96,2.14-2.13v-0.89H74.46v-7.83h14.35v-0.88C88.81,28.73,87.85,27.77,86.67,27.77z"/>
	<path class="st2" d="M63.03,27.77H41.31c-1.18,0-2.14,0.96-2.14,2.13v0.88h10.04v0l0,22.52h5.91V30.79h10.04v-0.88
		C65.16,28.73,64.2,27.77,63.03,27.77z"/>
	<path class="st2" d="M132.78,27.77h-2.37c-3.33,0-5.25,1.99-6.04,4.93l-5.52,20.61h2.23c0.97,0,1.81-0.65,2.06-1.58l1.67-6.24
		h12.27l1.67,6.24c0.25,0.93,1.1,1.58,2.06,1.58h4.32l-5.3-19.85C138.91,30.03,136.72,27.77,132.78,27.77z M125.62,42.47l2.63-9.83
		c0.29-1.09,1.21-1.85,2.34-1.86l0.77,0c1.29,0,1.99,0.76,2.29,1.86l2.62,9.83H125.62z"/>
	<path class="st2" d="M116.03,27.77v25.54h-3.76c-1.18,0-2.13-0.95-2.13-2.13v-9.55H98.51v9.55c0,1.18-0.95,2.13-2.13,2.13h-3.76
		V27.77h3.76c1.18,0,2.13,0.95,2.13,2.13v8.7h11.62v-8.7c0-1.18,0.95-2.13,2.13-2.13H116.03z"/>
</g>
</svg>
