<svg width="7" height="9" viewBox="0 0 7 9" fill="none" xmlns="http://www.w3.org/2000/svg">
<path d="M5.31735 1.04836C4.81059 0.682845 4.17414 0.5 3.40819 0.5C2.82517 0.5 2.33352 0.6288 1.9337 0.885778C1.29965 1.28853 0.962497 1.97218 0.921875 2.93662H2.3913C2.3913 2.65591 2.47325 2.38525 2.63717 2.12445C2.80125 1.86382 3.07939 1.73369 3.47174 1.73369C3.87068 1.73369 4.14552 1.83947 4.29583 2.05085C4.44632 2.26249 4.52152 2.49689 4.52152 2.75396C4.52152 2.97734 4.40935 3.18205 4.27432 3.36818C4.20001 3.47663 4.10206 3.57636 3.98037 3.66765C3.98037 3.66765 3.18348 4.17876 2.8337 4.58925C2.63077 4.82756 2.61254 5.18409 2.59468 5.69583C2.59343 5.73218 2.60739 5.80738 2.73477 5.80738C2.86214 5.80738 3.76428 5.80738 3.87761 5.80738C3.99094 5.80738 4.01459 5.72285 4.01619 5.68632C4.02419 5.49983 4.04517 5.40481 4.07903 5.29725C4.1433 5.09405 4.31797 4.91654 4.51397 4.76418L4.9185 4.48498C5.28357 4.20063 5.57495 3.96711 5.70339 3.78427C5.92312 3.48329 6.07744 3.11271 6.07744 2.67271C6.07744 1.95538 5.82392 1.41387 5.31735 1.04836ZM3.38454 6.68818C2.87814 6.67307 2.46028 7.02338 2.44428 7.57272C2.42845 8.12187 2.82588 8.48454 3.33228 8.49948C3.86108 8.51521 4.26766 8.17619 4.28348 7.62712C4.2993 7.07778 3.91334 6.70383 3.38454 6.68818Z" fill="#E13181"/>
</svg>
